<svg width="16" height="16" viewBox="0 0 16 16" fill="none" xmlns="http://www.w3.org/2000/svg">
<path d="M10.1933 5.13999L8.66666 3.60666V11.3333C8.66666 11.5101 8.59642 11.6797 8.47139 11.8047C8.34637 11.9298 8.1768 12 7.99999 12C7.82318 12 7.65361 11.9298 7.52858 11.8047C7.40356 11.6797 7.33332 11.5101 7.33332 11.3333V3.60666L5.80666 5.13999C5.68112 5.26552 5.51086 5.33605 5.33332 5.33605C5.15579 5.33605 4.98553 5.26552 4.85999 5.13999C4.73445 5.01445 4.66393 4.84419 4.66393 4.66666C4.66393 4.48912 4.73445 4.31886 4.85999 4.19332L7.52666 1.52666C7.59006 1.46596 7.66482 1.41839 7.74666 1.38666C7.82646 1.35139 7.91274 1.33317 7.99999 1.33317C8.08724 1.33317 8.17352 1.35139 8.25332 1.38666C8.33516 1.41839 8.40992 1.46596 8.47332 1.52666L11.14 4.19332C11.2655 4.31886 11.3361 4.48912 11.3361 4.66666C11.3361 4.84419 11.2655 5.01445 11.14 5.13999C11.0778 5.20215 11.004 5.25146 10.9228 5.2851C10.8416 5.31874 10.7546 5.33605 10.6667 5.33605C10.4891 5.33605 10.3189 5.26552 10.1933 5.13999ZM12.6667 14.6667H3.33332C3.15651 14.6667 2.98694 14.5964 2.86192 14.4714C2.73689 14.3464 2.66666 14.1768 2.66666 14C2.66666 13.8232 2.73689 13.6536 2.86192 13.5286C2.98694 13.4036 3.15651 13.3333 3.33332 13.3333H12.6667C12.8435 13.3333 13.013 13.4036 13.1381 13.5286C13.2631 13.6536 13.3333 13.8232 13.3333 14C13.3333 14.1768 13.2631 14.3464 13.1381 14.4714C13.013 14.5964 12.8435 14.6667 12.6667 14.6667Z" fill="white"/>
</svg>
