<svg width="23" height="21" viewBox="0 0 23 21" fill="none" xmlns="http://www.w3.org/2000/svg">
<g filter="url(#filter0_d_2_162)">
<path d="M18.625 11.875C18.625 12.0325 18.5624 12.1835 18.4511 12.2948C18.3397 12.4062 18.1887 12.4687 18.0312 12.4687H4.96875C4.81128 12.4687 4.66026 12.4062 4.54891 12.2948C4.43756 12.1835 4.375 12.0325 4.375 11.875C4.375 11.7175 4.43756 11.5665 4.54891 11.4551C4.66026 11.3438 4.81128 11.2812 4.96875 11.2812H18.0312C18.1887 11.2812 18.3397 11.3438 18.4511 11.4551C18.5624 11.5665 18.625 11.7175 18.625 11.875ZM4.96875 7.71873H18.0312C18.1887 7.71873 18.3397 7.65618 18.4511 7.54483C18.5624 7.43348 18.625 7.28246 18.625 7.12498C18.625 6.96751 18.5624 6.81649 18.4511 6.70514C18.3397 6.59379 18.1887 6.53123 18.0312 6.53123H4.96875C4.81128 6.53123 4.66026 6.59379 4.54891 6.70514C4.43756 6.81649 4.375 6.96751 4.375 7.12498C4.375 7.28246 4.43756 7.43348 4.54891 7.54483C4.66026 7.65618 4.81128 7.71873 4.96875 7.71873Z" fill="white" fill-opacity="0.5"/>
</g>
<defs>
<filter id="filter0_d_2_162" x="-2" y="-1.52588e-05" width="27" height="27" filterUnits="userSpaceOnUse" color-interpolation-filters="sRGB">
<feFlood flood-opacity="0" result="BackgroundImageFix"/>
<feColorMatrix in="SourceAlpha" type="matrix" values="0 0 0 0 0 0 0 0 0 0 0 0 0 0 0 0 0 0 127 0" result="hardAlpha"/>
<feOffset dy="4"/>
<feGaussianBlur stdDeviation="2"/>
<feComposite in2="hardAlpha" operator="out"/>
<feColorMatrix type="matrix" values="0 0 0 0 0 0 0 0 0 0 0 0 0 0 0 0 0 0 0.25 0"/>
<feBlend mode="normal" in2="BackgroundImageFix" result="effect1_dropShadow_2_162"/>
<feBlend mode="normal" in="SourceGraphic" in2="effect1_dropShadow_2_162" result="shape"/>
</filter>
</defs>
</svg>
