<svg width="18" height="18" viewBox="0 0 18 18" fill="none" xmlns="http://www.w3.org/2000/svg">
<g clip-path="url(#clip0_33_27)">
<path opacity="0.9" d="M9.74625 2.25002C6.015 2.25002 3 5.27252 3 9.00002H0.75L3.67125 11.9213L3.72375 12.03L6.75 9.00002H4.5C4.5 6.10127 6.85125 3.75002 9.75 3.75002C12.6488 3.75002 15 6.10127 15 9.00002C15 11.8988 12.6488 14.25 9.75 14.25C8.29875 14.25 6.99 13.6575 6.04125 12.7088L4.98 13.77C6.19875 14.9925 7.8825 15.75 9.74625 15.75C13.4775 15.75 16.5 12.7275 16.5 9.00002C16.5 5.27252 13.4775 2.25002 9.74625 2.25002ZM9 6.00002V9.75002L12.21 11.655L12.75 10.7438L10.125 9.18752V6.00002H9Z" fill="white"/>
</g>
<defs>
<clipPath id="clip0_33_27">
<rect width="18" height="18" fill="white"/>
</clipPath>
</defs>
</svg>
